<?xml version="1.0" encoding="UTF-8" standalone="no"?>
<svg
   width="16"
   height="16"
	viewBox="0 0 16 16"
   version="1.1"
   id="svg1"
   xmlns="http://www.w3.org/2000/svg"
   xmlns:svg="http://www.w3.org/2000/svg">
  <defs
     id="defs1" />
  <path
     id="path1"
     d="M 6,3 C 5.7347989,3.0000401 5.4804743,3.1054232 5.2929688,3.2929688 l -4,4 c -0.39042353,0.390507 -0.39042353,1.0235554 0,1.4140624 l 4,3.9999998 C 5.4804743,12.894577 5.7347988,12.99996 6,13 h 8 c 0.552285,0 1,-0.447715 1,-1 V 4 C 15,3.4477153 14.552285,3 14,3 Z m 3.8613281,1.0585938 h 0.5449219 0.542969 c 0.187688,4.7e-6 0.339839,0.1521553 0.339843,0.3398437 -4e-6,0.1876884 -0.152155,0.339839 -0.339843,0.3398437 h -0.203125 v 0.2734376 c 0.928501,0.084436 1.701077,0.4307898 2.207031,1 0.57198,0.6434904 0.849609,1.4879495 0.849609,2.328125 0,0.8401749 -0.277663,1.6864182 -0.849609,2.3300782 -0.927029,1.043264 -1.929687,1.037211 -2.207031,1.070312 H 10.40625 C 9.3019014,11.740434 8.4294017,11.313412 7.8574219,10.669922 7.285442,10.026431 7.0078125,9.1819721 7.0078125,8.3417969 c 0,-0.8401753 0.2776631,-1.6844654 0.8496094,-2.328125 C 8.3634306,5.4442173 9.1376988,5.0963971 10.066406,5.0117188 V 4.7382812 H 9.8613281 C 9.6736394,4.7382769 9.5214887,4.5861262 9.5214844,4.3984375 9.5214887,4.2107488 9.6736394,4.0585981 9.8613281,4.0585938 Z M 10.746094,5.6875 v 0.2753906 c -4e-6,0.1876889 -0.152155,0.3398397 -0.339844,0.3398438 -0.187689,-4.1e-6 -0.33984,-0.1521549 -0.339844,-0.3398438 V 5.6894531 C 9.330023,5.7687143 8.7494409,6.0324636 8.3652344,6.4648438 7.9988471,6.8771703 7.8787492,7.4437212 7.8105469,8.0019531 h 0.1484375 c 0.1876887,4.3e-6 0.3398394,0.1521551 0.3398437,0.3398438 -4.3e-6,0.1876887 -0.152155,0.3398394 -0.3398437,0.3398437 H 7.8105469 c 0.068201,0.558198 0.1883276,1.1249461 0.5546875,1.5371094 0.3841777,0.432209 0.9648,0.696399 1.7011716,0.775391 v -0.273438 c 4e-6,-0.187689 0.152155,-0.33984 0.339844,-0.339844 0.187689,4e-6 0.33984,0.152155 0.339844,0.339844 v 0.273438 c 0.736092,-0.07936 1.315111,-0.343122 1.699218,-0.775391 C 12.811363,9.8068026 12.93158,9.239314 13,8.6816406 h -0.214844 c -0.187689,-4.1e-6 -0.33984,-0.1521549 -0.339844,-0.3398437 4e-6,-0.1876889 0.152155,-0.3398397 0.339844,-0.3398438 h 0.216797 C 12.934118,7.4428259 12.812234,6.8756846 12.445312,6.4628906 12.061186,6.0307388 11.482317,5.766542 10.746094,5.6875 Z m 0.746094,1.2265625 c 0.09012,3.89e-5 0.17653,0.035868 0.240234,0.099609 0.132618,0.1327026 0.132618,0.3477661 0,0.4804687 L 10.945312,8.28125 c -10e-7,6.51e-4 -10e-7,0.0013 0,0.00195 0.0024,0.019447 0.0037,0.039006 0.0039,0.058594 -4.3e-4,0.299695 -0.24327,0.5425345 -0.542962,0.5429716 C 10.105795,8.8854064 9.8617661,8.6422518 9.8613281,8.3417969 9.8606853,8.040579 10.105032,7.7962322 10.40625,7.796875 c 0.02024,1.742e-4 0.04045,0.00148 0.06055,0.00391 l 0.785156,-0.7871093 c 0.0637,-0.063741 0.150117,-0.099571 0.240235,-0.099609 z M 5,7 C 6.3333328,7 6.3333328,9 5,9 3.6666672,9 3.6666672,7 5,7 Z"
     style="fill:#8eef97;fill-opacity:1" />
</svg>
