<?xml version="1.0" encoding="UTF-8" standalone="no"?>
<!-- Created with Inkscape (http://www.inkscape.org/) -->

<svg
   width="208.08104mm"
   height="208.08102mm"
   viewBox="0 0 208.08104 208.08102"
   version="1.1"
   id="svg5"
   xml:space="preserve"
   sodipodi:docname="baraban.svg"
   inkscape:version="1.2.2 (b0a8486541, 2022-12-01)"
   xmlns:inkscape="http://www.inkscape.org/namespaces/inkscape"
   xmlns:sodipodi="http://sodipodi.sourceforge.net/DTD/sodipodi-0.dtd"
   xmlns="http://www.w3.org/2000/svg"
   xmlns:svg="http://www.w3.org/2000/svg"><sodipodi:namedview
     id="namedview2146"
     pagecolor="#ffffff"
     bordercolor="#000000"
     borderopacity="0.25"
     inkscape:showpageshadow="2"
     inkscape:pageopacity="0.0"
     inkscape:pagecheckerboard="0"
     inkscape:deskcolor="#d1d1d1"
     inkscape:document-units="mm"
     showgrid="false"
     inkscape:zoom="1"
     inkscape:cx="524"
     inkscape:cy="444"
     inkscape:window-width="1680"
     inkscape:window-height="978"
     inkscape:window-x="0"
     inkscape:window-y="40"
     inkscape:window-maximized="1"
     inkscape:current-layer="layer1" /><defs
     id="defs2"><rect
       x="274.01843"
       y="441.58701"
       width="69.524773"
       height="198.10739"
       id="rect314" /><rect
       x="54.916092"
       y="898.13672"
       width="8.5085249"
       height="16.092499"
       id="rect304" /><rect
       x="54.916092"
       y="898.13672"
       width="18.418459"
       height="16.647278"
       id="rect494" /><rect
       x="54.916092"
       y="898.13672"
       width="18.418459"
       height="16.647278"
       id="rect500" /><rect
       x="54.916092"
       y="898.13672"
       width="18.418459"
       height="16.647278"
       id="rect506" /><rect
       x="54.916092"
       y="898.13672"
       width="18.418459"
       height="16.647278"
       id="rect512" /><rect
       x="54.916092"
       y="898.13672"
       width="18.418459"
       height="16.647278"
       id="rect518" /><rect
       x="54.916092"
       y="898.13672"
       width="18.418459"
       height="16.647278"
       id="rect524" /><rect
       x="54.916092"
       y="898.13672"
       width="18.418459"
       height="16.647278"
       id="rect530" /><rect
       x="54.916092"
       y="898.13672"
       width="9.9544497"
       height="15.581346"
       id="rect536" /><rect
       x="54.916092"
       y="898.13672"
       width="18.418459"
       height="16.647278"
       id="rect542" /><rect
       x="54.916092"
       y="898.13672"
       width="18.418459"
       height="16.647278"
       id="rect548" /><rect
       x="54.916092"
       y="898.13672"
       width="18.418459"
       height="16.647278"
       id="rect554" /><rect
       x="54.916092"
       y="898.13672"
       width="18.418459"
       height="16.647278"
       id="rect2155" /><rect
       x="54.916092"
       y="898.13672"
       width="18.418459"
       height="16.647278"
       id="rect2161" /><rect
       x="54.916092"
       y="898.13672"
       width="18.418459"
       height="16.647278"
       id="rect2167" /><rect
       x="54.916092"
       y="898.13672"
       width="18.418459"
       height="16.647278"
       id="rect2173" /></defs><g
     id="layer1"
     transform="rotate(78,117.25313,112.43475)"><g
       id="g2600"
       transform="matrix(-0.74041499,-0.30668993,0.30668993,-0.74041499,116.97652,182.19231)"
       style="fill:#ffffff"
       inkscape:label="Барабан"><circle
         id="shape0-6"
         r="124.96799"
         cx="113.84066"
         cy="151.92563"
         fill="#eeeeee"
         fill-rule="evenodd"
         stroke="#000000"
         stroke-width="2.92608"
         stroke-linecap="square"
         stroke-linejoin="bevel"
         transform="matrix(1.0268074,0,0,1.0268074,-76.607129,-93.568655)"
         style="display:inline;fill:#ffffff"
         inkscape:label="Круг" /><g
         id="g13735"
         inkscape:label="Сектора"
         transform="matrix(1.2477861,0,0,1.2477861,-92.348424,-91.813294)"><path
           style="fill:#bcd35f;fill-opacity:1;stroke:#000000;stroke-width:1.25949"
           d="m 534.85127,529.01955 -132.38089,-131.94243 187.19243,0.31237 187.31403,-0.28166 -0.79584,21.59691 c -3.00224,81.47239 -39.3411,167.27985 -97.622,233.14037 -4.65642,5.262 -11.09294,10.5552 -11.3917,10.5552 -0.29879,0 -59.92385,-60.98422 -132.31603,-133.38076 z"
           id="path12811"
           transform="matrix(0.05500997,-0.25880155,0.25880155,0.05500997,-17.102948,203.74912)"
           sodipodi:nodetypes="scccssss"
           inkscape:label="Заливка4" /><path
           style="fill:#deaa87;fill-opacity:1;stroke:#000000;stroke-width:1.25949"
           d="M 397.38949,196.46966 396.67444,9.2674479 411.81766,9.9542833 C 500.52469,13.977676 583.83976,48.80119 652.85085,109.01205 l 10.22159,8.91814 -133.67659,133.28758 -132.54566,133.30814 z"
           id="path12807"
           transform="matrix(0.05500997,-0.25880155,0.25880155,0.05500997,-17.102948,203.74912)"
           sodipodi:nodetypes="ccsscccc"
           inkscape:label="Заливка3" /><path
           style="fill:#ffd42a;fill-opacity:1;stroke:#000000;stroke-width:1.78119"
           d="m 10.610291,377.60787 c 0.03341,-50.41299 20.358357,-125.13498 49.684804,-175.49693 12.685424,-21.78452 38.549977,-57.42272 48.836705,-69.6458 l 10.14308,-12.05238 131.72954,136.48258 132.59028,132.60978 -185.55596,0 -188.7873521,0.55675 1.3588651,-12.454 z"
           id="path12986"
           transform="matrix(0.05500997,-0.25880155,0.25880155,0.05500997,-17.102948,203.74912)"
           inkscape:label="Заливка2"
           sodipodi:nodetypes="sssccccccs" /><path
           style="fill:#93ac9d;fill-opacity:1;stroke:#000000;stroke-width:1.25949"
           d="M 367.39783,775.54515 C 282.44535,770.04321 198.45521,734.04986 134.9418,675.92784 l -9.70559,-8.88173 131.91113,-131.91114 132.54792,-133.24501 -0.63678,188.36388 c -0.34775,102.86591 -0.56235,186.91802 -1.24966,186.78116 -0.68731,-0.13696 -9.87225,-0.80731 -20.41099,-1.48985 z"
           id="path12809"
           transform="matrix(0.05500997,-0.25880155,0.25880155,0.05500997,-17.102948,203.74912)"
           inkscape:label="Заливка1"
           sodipodi:nodetypes="sscccsss" /><g
           id="g752"
           inkscape:label="линии"
           style="fill:#ffffff"><path
             style="fill:#000000;stroke:#000000;stroke-width:1.76738"
             d="M 85.031902,223.64847 127.55864,23.57828"
             id="path495"
             inkscape:label="Линия1" /><path
             style="fill:#000000;stroke:#000000;stroke-width:1.76738"
             d="M 206.33037,144.87674 6.2601735,102.35"
             id="path495-3"
             inkscape:label="Линия2" /><path
             style="fill:#000000;stroke:#000000;stroke-width:1.76738"
             d="M 161.99529,209.38434 50.595247,37.8424"
             id="path495-3-7"
             inkscape:label="Линия3" /><path
             style="fill:#000000;stroke:#000000;stroke-width:1.76738"
             d="M 192.06623,67.913351 20.524302,179.31339"
             id="path495-3-6"
             inkscape:label="Линия4" /></g></g></g><g
       style="display:inline;fill:none;stroke:currentColor;stroke-width:2;stroke-linecap:round;stroke-linejoin:round"
       id="g337"
       transform="matrix(0.26539174,-1.2485699,1.2485699,0.26539174,6.1450929,117.6575)"
       inkscape:label="cinema"><path
         stroke="none"
         d="M 0,0 H 24 V 24 H 0 Z"
         fill="none"
         id="path304" /><path
         d="M 4,4 M 4,6 A 2,2 0 0 1 6,4 h 12 a 2,2 0 0 1 2,2 v 12 a 2,2 0 0 1 -2,2 H 6 A 2,2 0 0 1 4,18 Z"
         id="path306" /><path
         d="M 8,4 V 20"
         id="path308" /><path
         d="M 16,4 V 20"
         id="path310" /><path
         d="M 4,8 H 8"
         id="path312" /><path
         d="M 4,16 H 8"
         id="path314" /><path
         d="M 4,12 H 20"
         id="path316" /><path
         d="m 16,8 h 4"
         id="path318" /><path
         d="m 16,16 h 4"
         id="path320" /></g><g
       style="fill:none;stroke:currentColor;stroke-width:2;stroke-linecap:round;stroke-linejoin:round"
       id="g426"
       transform="matrix(-1.1025704,0.71601757,0.71601757,1.1025704,65.905769,34.344125)"
       inkscape:label="theater"><path
         stroke="none"
         d="M 0,0 H 24 V 24 H 0 Z"
         fill="none"
         id="path393" /><path
         d="m 13.192,9 h 6.616 a 2,2 0 0 1 1.992,2.183 l -0.567,6.182 A 4,4 0 0 1 17.25,21 h -1.5 A 4,4 0 0 1 11.767,17.365 L 11.2,11.183 A 2,2 0 0 1 13.192,9 Z"
         id="path395" /><path
         d="m 15,13 h 0.01"
         id="path397" /><path
         d="m 18,13 h 0.01"
         id="path399" /><path
         d="m 15,16.5 c 1,0.667 2,0.667 3,0"
         id="path401" /><path
         d="M 8.632,15.982 A 4.037,4.037 0 0 1 8.25,16 H 6.75 A 4,4 0 0 1 2.767,12.365 L 2.2,6.183 A 2,2 0 0 1 4.192,4 h 6.616 a 2,2 0 0 1 2,2"
         id="path403" /><path
         d="M 6,8 H 6.01"
         id="path405" /><path
         d="M 9,8 H 9.01"
         id="path407" /><path
         d="M 6,12 C 6.764,11.49 7.528,11.37 8.291,11.64"
         id="path409" /></g><g
       style="display:inline;fill:none;stroke:currentColor;stroke-width:2;stroke-linecap:round;stroke-linejoin:round"
       id="g545"
       transform="matrix(1.291566,0.27453083,-0.27453083,1.291566,109.85629,23.693027)"
       inkscape:label="concert"><path
         stroke="none"
         d="M 0,0 H 24 V 24 H 0 Z"
         fill="none"
         id="path524" /><path
         d="m 3,17 a 3,3 0 1 0 6,0 3,3 0 0 0 -6,0"
         id="path526" /><path
         d="m 13,17 a 3,3 0 1 0 6,0 3,3 0 0 0 -6,0"
         id="path528" /><path
         d="M 9,17 V 4 h 10 v 13"
         id="path530" /><path
         d="M 9,8 H 19"
         id="path532" /></g><g
       style="display:inline;fill:none;stroke:currentColor;stroke-width:2;stroke-linecap:round;stroke-linejoin:round"
       id="g597"
       transform="matrix(-0.24601271,1.1573987,-1.1573987,-0.24601271,203.67103,131.46685)"
       inkscape:label="exhibitiom"><path
         stroke="none"
         d="M 0,0 H 24 V 24 H 0 Z"
         fill="none"
         id="path576" /><path
         d="m 15,8 h 0.01"
         id="path578" /><path
         d="M 3,6 A 3,3 0 0 1 6,3 h 12 a 3,3 0 0 1 3,3 v 12 a 3,3 0 0 1 -3,3 H 6 A 3,3 0 0 1 3,18 Z"
         id="path580" /><path
         d="m 3,16 5,-5 c 0.928,-0.893 2.072,-0.893 3,0 l 5,5"
         id="path582" /><path
         d="m 14,14 1,-1 c 0.928,-0.893 2.072,-0.893 3,0 l 3,3"
         id="path584" /></g><g
       style="display:inline;fill:none;stroke:currentColor;stroke-width:2;stroke-linecap:round;stroke-linejoin:round"
       id="g614"
       transform="matrix(-1.4657428,-0.3115533,0.3115533,-1.4657428,103.76265,225.06652)"
       inkscape:label="education"><path
         stroke="none"
         d="M 0,0 H 24 V 24 H 0 Z"
         fill="none"
         id="path599" /><path
         d="M 22,9 12,5 2,9 12,13 22,9 v 6"
         id="path601" /><path
         d="M 6,10.6 V 16 a 6,3 0 0 0 12,0 v -5.4"
         id="path603" /></g><g
       style="display:inline;fill:none;stroke:currentColor;stroke-width:2;stroke-linecap:round;stroke-linejoin:round"
       id="g643"
       transform="matrix(-1.1779631,0.76497823,-0.76497823,-1.1779631,171.9896,192.31728)"
       inkscape:label="social"><path
         stroke="none"
         d="M 0,0 H 24 V 24 H 0 Z"
         fill="none"
         id="path616" /><path
         d="m 10,13 a 2,2 0 1 0 4,0 2,2 0 0 0 -4,0"
         id="path618" /><path
         d="m 8,21 v -1 a 2,2 0 0 1 2,-2 h 4 a 2,2 0 0 1 2,2 v 1"
         id="path620" /><path
         d="m 15,5 a 2,2 0 1 0 4,0 2,2 0 0 0 -4,0"
         id="path622" /><path
         d="m 17,10 h 2 a 2,2 0 0 1 2,2 v 1"
         id="path624" /><path
         d="M 5,5 A 2,2 0 1 0 9,5 2,2 0 0 0 5,5"
         id="path626" /><path
         d="M 3,13 V 12 A 2,2 0 0 1 5,10 H 7"
         id="path628" /></g><g
       style="display:inline;fill:none;stroke:currentColor;stroke-width:2;stroke-linecap:round;stroke-linejoin:round"
       id="g672"
       transform="matrix(-0.74241143,-1.1432134,1.1432134,-0.74241143,33.252558,188.78323)"
       inkscape:label="other"><path
         stroke="none"
         d="M 0,0 H 24 V 24 H 0 Z"
         fill="none"
         id="path645" /><path
         d="M 12,21 V 17"
         id="path647" /><path
         d="M 12,13 V 9"
         id="path649" /><path
         d="M 12,5 V 3"
         id="path651" /><path
         d="m 10,21 h 4"
         id="path653" /><path
         d="M 8,5 V 9 H 19 L 21,7 19,5 Z"
         id="path655" /><path
         d="m 14,13 v 4 H 6 L 4,15 6,13 Z"
         id="path657" /></g><g
       style="display:inline;fill:none;stroke:currentColor;stroke-width:2;stroke-linecap:round;stroke-linejoin:round"
       id="g1147"
       transform="matrix(0.87204757,1.3428355,-1.3428355,0.87204757,177.79938,53.039352)"
       inkscape:label="quest"><g
         style="display:inline;fill:none;stroke:currentColor;stroke-width:2;stroke-linecap:round;stroke-linejoin:round"
         id="g1164"
         transform="matrix(0.44836799,0,0,0.44836799,5.4861573,5.5554582)"><circle
           cx="12"
           cy="12"
           r="10"
           id="circle1149" /><path
           d="m 9.09,9 a 3,3 0 0 1 5.83,1 c 0,2 -3,3 -3,3"
           id="path1151" /><line
           x1="12"
           y1="17"
           x2="12.01"
           y2="17"
           id="line1153" /></g><circle
         cx="11"
         cy="11"
         r="8"
         id="circle1135" /><line
         x1="21"
         y1="21"
         x2="16.65"
         y2="16.65"
         id="line1137" /></g></g></svg>
